<svg width="78" height="57" viewBox="0 0 78 57" fill="none" xmlns="http://www.w3.org/2000/svg">
<path d="M18.5933 2.37095C18.7533 2.33928 18.9132 2.30761 19.0732 2.27594C19.2043 2.2324 19.3341 2.19017 19.4652 2.14663C19.5701 2.08725 19.6762 2.02787 19.7824 1.96981C19.8545 1.95661 19.9267 1.94342 19.9988 1.93022C20.122 1.88932 20.2452 1.84709 20.3698 1.80619C20.4235 1.79299 20.4773 1.77848 20.531 1.76528C20.6084 1.73361 20.6844 1.70326 20.7618 1.6716L20.7801 1.65972C20.9047 1.62013 21.0279 1.58055 21.1525 1.54096C21.3347 1.4895 21.5156 1.43804 21.6979 1.38526C22.4399 1.21372 23.1819 1.04218 23.924 0.87064C24.9322 0.724173 25.939 0.579024 26.9472 0.432556C27.1858 0.445751 27.4271 0.487976 27.6617 0.465544C28.2334 0.410124 28.5611 0.680628 28.7499 1.22164C27.5778 1.65048 26.415 2.07537 25.2534 2.50026C25.1197 2.54117 24.9846 2.58207 24.8509 2.62298C24.8089 2.63617 24.7657 2.65069 24.7237 2.66388C24.6346 2.69423 24.5467 2.7259 24.4576 2.75625C23.5372 3.12176 22.6169 3.48859 21.6952 3.8541C20.9584 4.19454 20.2229 4.53498 19.4861 4.87542C19.3052 4.95327 19.1256 5.03112 18.9447 5.10897C18.0768 5.60116 17.2089 6.09466 16.341 6.58685C15.793 6.92201 15.2463 7.25717 14.6983 7.59233C14.3259 7.82853 13.9536 8.06472 13.5826 8.2996C13.1748 8.58066 12.7658 8.86304 12.3581 9.1441C12.4053 9.23119 12.4511 9.31828 12.4983 9.40537C12.9887 9.16257 13.479 8.91978 13.9706 8.67699C14.6288 8.37349 15.2869 8.07 15.945 7.76651C16.1194 7.69789 16.2925 7.62928 16.4668 7.56066C17.1656 7.29412 17.8644 7.02757 18.5645 6.76103C18.5986 6.73728 18.6314 6.71352 18.6654 6.68977C18.7638 6.66866 18.8608 6.64623 18.9591 6.62512C18.9906 6.60136 19.0234 6.57761 19.0548 6.55518L19.0692 6.53935C19.9489 6.25301 20.8273 5.96799 21.707 5.68165C22.3534 5.48768 23.001 5.29371 23.6474 5.10106C23.8755 5.03904 24.1049 4.9757 24.333 4.91368C24.5939 4.87278 24.8548 4.83187 25.1157 4.79097C25.1695 4.77249 25.2232 4.75402 25.277 4.73423C25.7018 4.63262 26.1265 4.53102 26.55 4.4281C27.5542 4.24996 28.5585 4.07182 29.5627 3.89369C30.4346 3.79076 31.3051 3.68784 32.1769 3.58492C33.058 3.49915 33.9403 3.4147 34.8213 3.32893C35.6879 3.28538 36.5545 3.24316 37.4211 3.19961C38.3034 3.19961 39.1844 3.19961 40.0667 3.19961C40.502 3.20225 40.9373 3.20357 41.3738 3.20621C41.4577 3.23392 41.5416 3.26031 41.6256 3.28802C41.9769 3.29594 42.327 3.30386 42.6783 3.31177C43.5554 3.40678 44.4338 3.50047 45.3109 3.59547C46.1014 3.70103 46.892 3.80792 47.6812 3.91348C47.7625 3.94119 47.8451 3.9689 47.9264 3.99793C48.0168 3.99793 48.1086 3.99661 48.1991 3.99661C48.2318 4.02432 48.2699 4.03488 48.3118 4.02828C48.3446 4.05599 48.3813 4.06786 48.4233 4.06523C48.4705 4.08502 48.5163 4.10481 48.5635 4.1246C48.7064 4.1246 48.8493 4.1246 48.9922 4.1246C49.0735 4.16155 49.1548 4.1985 49.2361 4.23544C49.4118 4.25524 49.5861 4.27635 49.7618 4.29614C49.7933 4.33177 49.8326 4.34497 49.8785 4.33969L49.8772 4.33309C50.0909 4.38719 50.3059 4.44261 50.5196 4.49671C52.2371 4.96251 53.9558 5.42698 55.6733 5.89278C56.5503 6.20023 57.4261 6.50768 58.3032 6.81513C60.1386 7.62664 61.9741 8.43683 63.8095 9.24834C63.8659 9.18369 63.9223 9.12035 63.9787 9.05569C63.7964 8.92374 63.6181 8.78651 63.432 8.65983C62.5365 8.05153 61.6581 7.41288 60.7352 6.85076C59.9446 6.36913 59.1003 5.97591 58.2796 5.5431C57.7945 5.28975 57.3094 5.0364 56.8257 4.78305C56.5176 4.63262 56.2095 4.4822 55.9014 4.33177C54.9456 3.93855 53.9886 3.54401 53.0328 3.15079C51.7257 2.66916 50.4173 2.18753 49.1089 1.70854C48.9503 1.65048 48.7864 1.60694 48.5347 1.52777C48.8389 1.14114 49.0997 0.809942 49.3593 0.47742C49.4026 0.464225 49.4459 0.452349 49.4904 0.439154C49.6242 0.439154 49.7579 0.437834 49.8929 0.437834L49.9545 0.456308L50.0162 0.436515C50.1905 0.436515 50.3649 0.435195 50.5406 0.435195C51.4177 0.573746 52.2947 0.712297 53.1731 0.849528C54.045 1.01975 54.9155 1.18997 55.7873 1.36019C56.6631 1.62145 57.5389 1.88272 58.4146 2.14399C58.4671 2.16378 58.5195 2.18357 58.572 2.20337C58.6034 2.2258 58.6349 2.24955 58.6664 2.27198C58.7175 2.29178 58.7686 2.31289 58.8197 2.33268C59.5618 2.6243 60.3038 2.91591 61.0459 3.20885C61.7945 3.577 62.5444 3.94647 63.293 4.31462C63.3218 4.33573 63.352 4.35684 63.3808 4.37663C63.432 4.39379 63.4818 4.41226 63.5329 4.42942C63.9288 4.65374 64.3248 4.87938 64.7207 5.1037C65.2386 5.43226 65.7577 5.76214 66.2756 6.09071C67.0609 6.78742 68.1071 7.18988 68.5424 8.27849C68.8321 9.00159 69.232 9.67983 69.582 10.3792C69.9439 11.2131 70.3044 12.0471 70.6662 12.881C70.952 13.5896 71.2365 14.2982 71.5223 15.0055C71.5944 15.1902 71.6666 15.3736 71.74 15.5583C72.069 16.4266 72.3981 17.2962 72.7272 18.1644C73.1978 19.6687 73.6685 21.1729 74.1378 22.6772C74.1326 22.7208 74.1431 22.759 74.168 22.7933C74.1772 22.8356 74.1864 22.8791 74.1955 22.9213C74.2454 23.0942 74.2952 23.2684 74.345 23.4412C74.5941 24.3227 74.8432 25.2054 75.0936 26.0869C75.2889 26.9749 75.4843 27.863 75.6796 28.751C75.8501 29.6245 76.0192 30.4968 76.1896 31.3703C76.343 32.1607 76.4964 32.9498 76.6485 33.7402C76.6694 33.8312 76.6917 33.9236 76.7127 34.0146C76.7953 34.7153 76.8766 35.4146 76.9592 36.1153C77.0195 36.2987 77.0811 36.4808 77.1414 36.6642L77.1322 36.6708C77.1362 36.9255 77.1401 37.1815 77.144 37.4362C77.1598 37.4771 77.1755 37.5193 77.1912 37.5602C77.2463 38.1382 77.3027 38.7161 77.3577 39.2941C77.4154 40.1742 77.4744 41.0556 77.5334 41.9358C77.5478 42.8133 77.561 43.6907 77.5754 44.5682C77.5819 45.5064 77.654 46.4618 76.9094 47.2086C76.853 47.2865 76.7953 47.3643 76.7389 47.4409C76.5816 47.6256 76.4243 47.8116 76.2683 47.9964C76.2407 48.0188 76.2276 48.0478 76.2276 48.0835C76.1149 48.1903 76.0008 48.2959 75.8881 48.4028C75.8356 48.4556 75.7819 48.5084 75.7294 48.5611C75.6508 48.6403 75.5734 48.7195 75.4948 48.7973C75.3899 48.9095 75.2863 49.023 75.1814 49.1351C75.1356 49.1919 75.091 49.2486 75.0451 49.3054L75.0529 49.2922C74.9808 49.3476 74.9087 49.4017 74.8366 49.4571C74.7475 49.5442 74.657 49.6313 74.5679 49.7184C74.5076 49.7382 74.4473 49.7593 74.3869 49.7791L74.3345 49.787L74.324 49.8424C74.2965 49.8477 74.2847 49.8635 74.2873 49.8912C74.2349 49.9612 74.1811 50.0311 74.1287 50.101L74.1313 50.0865C73.7485 50.3649 73.3656 50.6447 72.9828 50.9218C72.267 51.4377 71.5512 51.9523 70.8354 52.4683C70.7082 52.5501 70.5797 52.6332 70.4525 52.715L70.4407 52.7256C70.3136 52.7625 70.1864 52.7981 70.0592 52.8351L70.0055 52.8272L69.9832 52.8839C69.624 53.0911 69.2634 53.2983 68.9042 53.5067L68.8492 53.4949L68.819 53.5463C67.0976 54.1375 65.3762 54.7286 63.6548 55.3198C63.3939 55.3937 63.133 55.4676 62.8708 55.5401C62.8302 55.5533 62.7882 55.5665 62.7476 55.581C62.1773 55.6694 61.6083 55.7579 61.038 55.8476C60.1622 55.9202 59.2865 55.9927 58.4107 56.0653C57.0118 56.2566 56.4258 55.1944 55.7283 54.3037C55.7257 54.2628 55.71 54.2285 55.6811 54.1995C55.2747 53.7258 54.8696 53.2521 54.4632 52.7797C54.416 52.686 54.3688 52.5923 54.3216 52.4986C53.9335 52.0183 53.5442 51.538 53.1561 51.0577C53.1115 50.96 53.0669 50.8624 53.0224 50.7648C53.788 50.4705 54.555 50.1776 55.3206 49.8833C55.4792 49.8318 55.6366 49.7804 55.7952 49.7276C56.7155 49.2961 57.6372 48.8646 58.5575 48.4331C59.0741 48.1033 59.5919 47.7747 60.1085 47.4448C60.4559 47.1875 60.8047 46.9289 61.1521 46.6716C61.2412 46.6214 61.3304 46.5713 61.4195 46.5211C61.5034 46.4393 61.5873 46.3588 61.6726 46.277C62.3058 45.7083 62.939 45.1396 63.5722 44.5709C63.9983 44.1077 64.4257 43.6446 64.8518 43.1814C64.8059 43.1299 64.76 43.0785 64.7141 43.027C63.9498 43.5271 63.1855 44.0272 62.4212 44.5273C62.391 44.5194 62.3608 44.5234 62.3333 44.5392C62.2861 44.5352 62.2468 44.5498 62.214 44.5841C61.8233 44.8058 61.4326 45.0288 61.0406 45.2504C60.5241 45.4734 60.0062 45.6991 59.4897 45.9208C58.2586 46.4499 57.0276 46.979 55.7965 47.5082C55.7034 47.5213 55.6103 47.5332 55.5186 47.5464C55.4871 47.5675 55.4543 47.5886 55.4229 47.6098C54.9352 47.7892 54.4475 47.97 53.9598 48.1494C53.8339 48.1903 53.708 48.2313 53.5822 48.2722C53.4498 48.292 53.316 48.3131 53.1836 48.3329C52.473 48.5493 51.7625 48.767 51.0519 48.9834C50.9745 49.0151 50.8985 49.048 50.8211 49.0797C50.7294 49.0916 50.6389 49.1021 50.5471 49.114C50.357 49.1457 50.1643 49.1655 49.9781 49.213C49.1902 49.4122 48.4036 49.6194 47.617 49.8239C47.1516 49.8833 46.6861 49.944 46.2194 50.0034C46.1735 49.9968 46.1342 50.0087 46.0988 50.039C46.0044 50.039 45.9113 50.0377 45.8169 50.0377C45.7579 50.0535 45.6989 50.0694 45.6399 50.0865C45.5246 50.1274 45.4079 50.1683 45.2925 50.2092C45.2545 50.196 45.2165 50.1974 45.1785 50.2132C45.1299 50.2132 45.0801 50.2132 45.0316 50.2132C45.0028 50.196 44.9792 50.2013 44.9595 50.229C44.9084 50.2132 44.8573 50.196 44.8048 50.1802C44.0929 50.2686 43.3823 50.3557 42.6704 50.4441C41.8039 50.4863 40.936 50.5299 40.0694 50.5721C39.187 50.5286 38.3047 50.4863 37.4224 50.4428C36.5545 50.4006 35.6866 50.3597 34.8187 50.3174C34.289 50.2567 33.7607 50.196 33.231 50.1353C33.1891 50.1076 33.1471 50.0812 33.1038 50.0535C32.7957 50.0562 32.489 50.0588 32.1809 50.0614C31.9488 50.0232 31.7141 49.9981 31.4847 49.9466C30.0098 49.6128 28.5362 49.2737 27.0626 48.9372C26.1475 48.6759 25.2324 48.4147 24.3173 48.1534C23.6408 47.9185 22.9643 47.6836 22.2865 47.4488C22.2223 47.4184 22.1567 47.3894 22.0925 47.359C21.9614 47.3168 21.8303 47.2746 21.6979 47.2311C21.61 47.1849 21.5209 47.1387 21.433 47.0925C20.649 46.7639 19.8663 46.4367 19.0823 46.1081C18.2053 45.6912 17.3295 45.2742 16.4524 44.8559C16.2767 44.7622 16.0997 44.6685 15.9241 44.5748C15.0955 44.1354 14.2656 43.6947 13.437 43.2553C13.4095 43.1788 13.382 43.1022 13.3531 43.027C13.3256 43.0442 13.2981 43.0613 13.2705 43.0798C13.3295 43.1365 13.3872 43.192 13.4462 43.2487C13.8186 43.6934 14.1909 44.1381 14.5619 44.5841C15.1899 45.1673 15.8179 45.7492 16.4445 46.3324C17.3701 46.9909 18.2643 47.6995 19.2305 48.292C20.0119 48.7723 20.8785 49.1127 21.707 49.5165C22.5736 49.8622 23.4415 50.2079 24.3081 50.5536C24.4419 50.6249 24.5756 50.6961 24.7093 50.7674C24.3042 51.3321 23.8978 51.8982 23.4927 52.463C22.4884 53.6572 21.4855 54.8513 20.4812 56.0455C20.2754 56.0548 20.0696 56.064 19.8637 56.0732C19.7326 56.0732 19.6015 56.0732 19.4704 56.0732C19.3406 56.0732 19.2108 56.0732 19.081 56.0732C18.2053 55.9993 17.3295 55.9254 16.4537 55.8515C15.7667 55.7367 15.0785 55.6219 14.3902 55.5071C14.339 55.4887 14.2879 55.4702 14.2355 55.4517C14.103 55.424 13.9706 55.3963 13.8369 55.3686C12.0854 54.726 10.3325 54.0834 8.58098 53.4408C8.49314 53.3959 8.4053 53.351 8.31615 53.3049C8.05394 53.1755 7.79173 53.0449 7.52953 52.9156C7.43513 52.8641 7.34074 52.8127 7.24634 52.7625C7.16768 52.7256 7.09033 52.6886 7.01167 52.6517L6.99069 52.6372C6.23554 52.1054 5.47776 51.5776 4.72654 51.0405C4.2585 50.7054 3.80095 50.357 3.33816 50.0139C3.20574 49.8833 3.07333 49.7514 2.94091 49.6207C2.89109 49.5666 2.84127 49.5125 2.79146 49.4597C2.75475 49.4228 2.71935 49.3858 2.68264 49.3502C2.3693 49.0348 2.05597 48.7195 1.74263 48.4041C1.70592 48.3672 1.66921 48.3315 1.63381 48.2946C1.54073 48.1983 1.44634 48.1019 1.35325 48.0056C1.31392 47.9264 1.2759 47.846 1.23657 47.7668C1.14218 47.6731 1.04778 47.5794 0.953388 47.4857C0.870793 47.3947 0.788198 47.3049 0.705603 47.2139C0.164146 46.537 -0.0993714 45.7796 0.034354 44.9021C0.0500864 44.7992 0.0133774 44.6896 0.00157815 44.5827C0.0461533 43.6947 0.0894173 42.8067 0.133992 41.9173C0.175945 41.0438 0.216587 40.1702 0.258541 39.298C0.262474 39.203 0.266407 39.108 0.27034 39.013C0.300494 38.9774 0.312293 38.9378 0.304427 38.8916L0.324092 38.8652L0.379156 38.8415L0.377845 38.786C0.443396 38.0722 0.507637 37.3583 0.573188 36.6458C0.612519 36.5732 0.67676 36.5046 0.688559 36.4267C0.944211 34.747 1.19593 33.0659 1.44765 31.3848C1.6207 30.4968 1.79376 29.6087 1.96682 28.722C2.1556 27.8471 2.34308 26.971 2.53187 26.0961C2.56334 26.0499 2.59611 26.0037 2.62758 25.9576C2.69051 25.6857 2.75344 25.4126 2.81505 25.1408C2.83472 25.1117 2.85439 25.084 2.87405 25.055C2.88192 24.9574 2.88978 24.861 2.89896 24.7634C2.92518 24.6816 2.9514 24.6011 2.97631 24.5193C3.03793 24.3385 3.09955 24.1577 3.16117 23.9769C3.18345 23.9374 3.18214 23.8991 3.15986 23.8608C3.18214 23.7724 3.20443 23.684 3.22672 23.5956C3.2726 23.4267 3.3198 23.2578 3.36569 23.0876C3.60298 22.3262 3.84028 21.5648 4.07758 20.8048C4.35552 19.9695 4.63477 19.1343 4.91271 18.299C4.95204 18.1723 4.99137 18.0457 5.0307 17.919C5.05561 17.8886 5.06741 17.853 5.0661 17.8134C5.20244 17.4545 5.33879 17.0956 5.47514 16.7367C5.5066 16.6364 5.53807 16.5374 5.56953 16.4371C5.59051 16.4055 5.61149 16.3751 5.63377 16.3435C5.65213 16.2485 5.66917 16.1548 5.68753 16.0598C5.73079 15.9714 5.77274 15.8816 5.81601 15.7932L5.8265 15.78C5.85665 15.6943 5.88811 15.6098 5.91827 15.524C5.96678 15.3934 6.01528 15.2641 6.06379 15.1335C6.37713 14.3431 6.69047 13.5527 7.0038 12.7623L7.00905 12.7557C7.07853 12.6237 7.14933 12.4904 7.21881 12.3585C7.25028 12.2476 7.28305 12.1368 7.31452 12.026C7.34205 11.9639 7.36958 11.9006 7.39711 11.8386L7.39973 11.8241C7.43907 11.7423 7.4784 11.6591 7.51773 11.5773C7.56099 11.4876 7.60426 11.3979 7.64883 11.3081C7.67636 11.2646 7.7039 11.2197 7.73143 11.1762C7.77993 11.0442 7.82844 10.9123 7.87695 10.7803C7.88744 10.7368 7.89793 10.6946 7.90842 10.651C7.9543 10.5613 8.0015 10.4729 8.04739 10.3831C8.168 10.1813 8.30566 9.98728 8.40792 9.77616C9.0359 8.48038 9.56163 7.1107 10.9421 6.38496C10.9998 6.32822 11.0562 6.27148 11.1139 6.21474H11.1663L11.2122 6.18967C11.8546 5.78457 12.4957 5.37816 13.1381 4.97306C13.3741 4.85562 13.6101 4.73687 13.8461 4.61943C14.495 4.27899 15.1427 3.93987 15.7917 3.59943C15.9254 3.52686 16.0591 3.45428 16.1915 3.38171C16.2767 3.36323 16.362 3.34344 16.4459 3.32497C17.1591 3.00696 17.8762 2.68895 18.5933 2.37095ZM22.8673 26.3323C22.7532 26.3891 22.6379 26.4445 22.5238 26.5012C22.2524 26.7691 21.981 27.0356 21.7097 27.3035C21.3622 27.7825 21.0161 28.2601 20.6687 28.7391C20.3776 29.614 20.0853 30.4888 19.7942 31.365C19.4311 32.3058 19.6317 33.2374 19.8375 34.1703C20.1731 34.9911 20.5101 35.8118 20.8457 36.6339C21.1328 36.9862 21.4186 37.3398 21.7057 37.6922C23.3498 39.5923 25.4409 40.1069 27.8243 39.6688C28.194 39.6002 28.5388 39.3996 28.8954 39.2598C29.0292 39.2162 29.1616 39.1727 29.2953 39.1291C29.3923 39.0552 29.4893 38.9827 29.585 38.9088L29.589 38.9193C30.6588 38.4469 31.3838 37.6103 31.979 36.6352C32.0589 36.4835 32.1389 36.3304 32.2189 36.1773C32.4942 35.4516 32.7695 34.7258 33.0448 34.0014C33.0842 33.8114 33.1615 33.6188 33.1563 33.4301C33.134 32.7466 33.0842 32.063 33.0462 31.3795C33.0462 31.1842 33.075 30.9837 33.0396 30.795C32.7092 29.0044 31.7312 27.5898 30.3494 26.4959C29.3753 25.7253 28.2438 25.1896 26.9367 25.2305C25.5772 25.0708 24.3121 25.3216 23.1701 26.1067L23.1505 26.1199C23.0508 26.1911 22.9525 26.2637 22.8529 26.335L22.8673 26.3323ZM52.5032 39.5316C52.5451 39.5197 52.5871 39.5065 52.6304 39.4946C52.709 39.4643 52.7877 39.4353 52.8663 39.4049C54.0686 38.9681 55.1436 38.3612 55.786 37.1802C56.7575 36.3515 57.063 35.2009 57.2976 34.0159C57.299 33.1305 57.2989 32.2465 57.3003 31.361C57.2989 31.2753 57.299 31.1882 57.2976 31.1024C57.3239 31.0628 57.3252 31.0219 57.3003 30.981C57.2518 30.7567 57.2032 30.5324 57.156 30.3081C57.1338 30.2751 57.1128 30.2421 57.0905 30.2078C57.0263 30.0217 56.962 29.8357 56.8965 29.6496C56.8742 29.6153 56.8506 29.581 56.8283 29.548C56.806 29.449 56.7837 29.3501 56.7601 29.2511C56.7391 29.2168 56.7182 29.1825 56.6972 29.1482C56.6054 29.0123 56.5136 28.8777 56.4219 28.7418C56.2187 28.4159 56.0154 28.0912 55.8122 27.7653C55.2013 27.0515 54.6402 26.2795 53.6766 25.9985C53.5022 25.9074 53.3278 25.8151 53.1535 25.724C53.0184 25.6739 52.8821 25.6224 52.747 25.5723C52.7143 25.5498 52.6815 25.5287 52.6474 25.5063C51.9486 25.4152 51.2498 25.3255 50.5498 25.2345C50.1853 25.249 49.813 25.2173 49.4577 25.2833C47.6039 25.6303 46.1827 26.6873 45.1575 28.2206C44.5347 29.1508 44.0418 30.1933 44.0523 31.3808C43.7167 32.2662 43.8779 33.1437 44.0995 34.0186C44.1978 34.4197 44.2502 34.8407 44.401 35.2207C45.0906 36.9625 46.1473 38.3823 47.9277 39.1357C48.0483 39.1925 48.1676 39.2492 48.2882 39.3059C48.9804 39.7836 49.7474 39.8773 50.5563 39.7572C51.0781 39.7137 51.5999 39.6715 52.1217 39.6279L52.1794 39.6464L52.2371 39.6253C52.3262 39.5949 52.414 39.5633 52.5032 39.5316Z" fill="black"/>
</svg>
