<svg width="25" height="17" viewBox="0 0 25 17" fill="none" xmlns="http://www.w3.org/2000/svg">
<path d="M5.99165 0.592084C6.04319 0.582411 6.09474 0.572738 6.14628 0.563065C6.18853 0.549764 6.23035 0.536866 6.2726 0.523565C6.3064 0.505428 6.34062 0.487291 6.37484 0.469556C6.39807 0.465526 6.42131 0.461495 6.44455 0.457465C6.48426 0.44497 6.52397 0.432072 6.56411 0.419578C6.58143 0.415547 6.59875 0.411114 6.61607 0.407083C6.641 0.39741 6.6655 0.38814 6.69043 0.378466L6.69634 0.374839C6.73648 0.362747 6.77619 0.350656 6.81633 0.338564C6.87505 0.322845 6.93335 0.307126 6.99208 0.291004C7.2312 0.238607 7.47032 0.18621 7.70944 0.133813C8.03433 0.0890746 8.35879 0.0447388 8.68367 0C8.76056 0.00403053 8.8383 0.0169282 8.91392 0.0100763C9.09812 -0.00685189 9.20374 0.0757739 9.26458 0.241025C8.88689 0.372018 8.51215 0.501801 8.13783 0.631584C8.09474 0.644078 8.05123 0.656573 8.00813 0.669067C7.99461 0.673098 7.98067 0.677532 7.96715 0.681562C7.93842 0.690832 7.91012 0.700506 7.88139 0.709776C7.58481 0.821421 7.28823 0.93347 6.99123 1.04512C6.7538 1.1491 6.51679 1.25309 6.27936 1.35708C6.22106 1.38086 6.16318 1.40464 6.10488 1.42842C5.8252 1.57876 5.54552 1.7295 5.26584 1.87984C5.08924 1.98221 4.91307 2.08459 4.73647 2.18696C4.61649 2.25911 4.49651 2.33126 4.37695 2.403C4.24556 2.48885 4.11374 2.5751 3.98235 2.66095C3.99756 2.68756 4.01235 2.71416 4.02756 2.74076C4.18556 2.6666 4.34357 2.59243 4.502 2.51827C4.71408 2.42557 4.92617 2.33287 5.13825 2.24017C5.19444 2.21921 5.25021 2.19825 5.30639 2.17729C5.53157 2.09587 5.75676 2.01446 5.98236 1.93304C5.99334 1.92579 6.0039 1.91853 6.01489 1.91128C6.04657 1.90483 6.07784 1.89797 6.10952 1.89153C6.11966 1.88427 6.13022 1.87702 6.14036 1.87016L6.14501 1.86533C6.42849 1.77787 6.71155 1.69081 6.99503 1.60334C7.20332 1.54409 7.41202 1.48485 7.6203 1.426C7.69381 1.40706 7.76774 1.38771 7.84126 1.36877C7.92533 1.35627 8.0094 1.34378 8.09347 1.33128C8.1108 1.32564 8.12812 1.32 8.14544 1.31395C8.28232 1.28292 8.4192 1.25188 8.55566 1.22044C8.87928 1.16603 9.2029 1.11162 9.52652 1.05721C9.80746 1.02577 10.088 0.994331 10.3689 0.962893C10.6528 0.936694 10.9372 0.910899 11.2211 0.884701C11.5003 0.8714 11.7796 0.858502 12.0588 0.845201C12.3432 0.845201 12.6271 0.845201 12.9114 0.845201C13.0517 0.846007 13.1919 0.846411 13.3326 0.847217C13.3596 0.855681 13.3867 0.863742 13.4137 0.872206C13.5269 0.874624 13.6397 0.877043 13.753 0.879461C14.0356 0.908481 14.3187 0.937097 14.6013 0.966117C14.8561 0.998361 15.1108 1.03101 15.3651 1.06325C15.3913 1.07172 15.418 1.08018 15.4441 1.08905C15.4733 1.08905 15.5029 1.08865 15.532 1.08865C15.5426 1.09711 15.5548 1.10033 15.5684 1.09832C15.5789 1.10678 15.5907 1.11041 15.6043 1.1096C15.6195 1.11565 15.6343 1.1217 15.6495 1.12774C15.6955 1.12774 15.7416 1.12774 15.7876 1.12774C15.8138 1.13903 15.84 1.15031 15.8662 1.1616C15.9228 1.16764 15.979 1.17409 16.0356 1.18014C16.0458 1.19102 16.0584 1.19505 16.0732 1.19344L16.0728 1.19142C16.1417 1.20795 16.2109 1.22488 16.2798 1.2414C16.8333 1.38368 17.3871 1.52555 17.9406 1.66783C18.2232 1.76174 18.5054 1.85565 18.7881 1.94957C19.3795 2.19744 19.971 2.44492 20.5625 2.6928C20.5806 2.67305 20.5988 2.6537 20.617 2.63395C20.5582 2.59364 20.5008 2.55173 20.4408 2.51303C20.1522 2.32723 19.8692 2.13215 19.5717 1.96045C19.317 1.81333 19.0449 1.69322 18.7804 1.56102C18.6241 1.48364 18.4678 1.40625 18.3119 1.32886C18.2126 1.28292 18.1134 1.23697 18.0141 1.19102C17.7061 1.07091 17.3977 0.950398 17.0897 0.830289C16.6685 0.683174 16.2469 0.53606 15.8252 0.389752C15.7741 0.372018 15.7213 0.358717 15.6402 0.334534C15.7382 0.216439 15.8223 0.115273 15.9059 0.0137038C15.9199 0.00967326 15.9338 0.00604579 15.9482 0.00201526C15.9913 0.00201526 16.0343 0.00161221 16.0779 0.00161221L16.0977 0.00725495L16.1176 0.00120916C16.1738 0.00120916 16.23 0.000806105 16.2866 0.000806105C16.5692 0.0431266 16.8518 0.0854472 17.1349 0.127365C17.4158 0.179358 17.6964 0.231352 17.9773 0.283346C18.2595 0.36315 18.5417 0.442955 18.824 0.522759C18.8409 0.528805 18.8578 0.534851 18.8747 0.540897C18.8848 0.547749 18.8949 0.555004 18.9051 0.561855C18.9216 0.567901 18.938 0.57435 18.9545 0.580396C19.1936 0.66947 19.4328 0.758545 19.6719 0.848023C19.9131 0.960474 20.1548 1.07333 20.396 1.18578C20.4053 1.19223 20.415 1.19868 20.4243 1.20472C20.4408 1.20996 20.4568 1.21561 20.4733 1.22085C20.6009 1.28937 20.7285 1.35829 20.8561 1.42681C21.023 1.52717 21.1903 1.62793 21.3571 1.72829C21.6102 1.9411 21.9473 2.06403 22.0876 2.39655C22.181 2.61742 22.3098 2.82459 22.4226 3.03821C22.5392 3.29294 22.6554 3.54767 22.772 3.8024C22.8641 4.01884 22.9558 4.23528 23.0479 4.45131C23.0711 4.50774 23.0944 4.56377 23.118 4.62019C23.2241 4.8854 23.3301 5.15101 23.4361 5.41622C23.5878 5.8757 23.7395 6.33518 23.8907 6.79466C23.889 6.80796 23.8924 6.81965 23.9004 6.83013C23.9034 6.84303 23.9064 6.85633 23.9093 6.86923C23.9254 6.92203 23.9414 6.97523 23.9575 7.02803C24.0377 7.29727 24.118 7.56691 24.1987 7.83615C24.2617 8.1074 24.3246 8.37866 24.3876 8.64991C24.4425 8.91673 24.497 9.18315 24.5519 9.44997C24.6013 9.6914 24.6508 9.93243 24.6998 10.1739C24.7065 10.2017 24.7137 10.2299 24.7205 10.2577C24.7471 10.4717 24.7733 10.6853 24.7999 10.8994C24.8193 10.9554 24.8392 11.011 24.8586 11.067L24.8557 11.069C24.8569 11.1468 24.8582 11.225 24.8595 11.3028C24.8645 11.3153 24.8696 11.3282 24.8747 11.3407C24.8924 11.5172 24.9106 11.6938 24.9283 11.8703C24.9469 12.1391 24.9659 12.4084 24.9849 12.6772C24.9896 12.9452 24.9938 13.2133 24.9985 13.4813C25.0006 13.7679 25.0238 14.0597 24.7838 14.2878C24.7657 14.3116 24.7471 14.3354 24.7289 14.3588C24.6782 14.4152 24.6275 14.472 24.5772 14.5284C24.5684 14.5353 24.5642 14.5442 24.5642 14.555C24.5278 14.5877 24.4911 14.6199 24.4547 14.6526C24.4378 14.6687 24.4205 14.6848 24.4036 14.7009C24.3783 14.7251 24.3533 14.7493 24.328 14.7731C24.2942 14.8073 24.2608 14.842 24.227 14.8763C24.2122 14.8936 24.1979 14.9109 24.1831 14.9283L24.1856 14.9242C24.1624 14.9412 24.1391 14.9577 24.1159 14.9746C24.0872 15.0012 24.058 15.0278 24.0293 15.0544C24.0099 15.0605 23.9904 15.0669 23.971 15.073L23.9541 15.0754L23.9507 15.0923C23.9418 15.0939 23.938 15.0988 23.9389 15.1072C23.922 15.1286 23.9047 15.1499 23.8878 15.1713L23.8886 15.1669C23.7652 15.2519 23.6419 15.3374 23.5185 15.422C23.2878 15.5796 23.0572 15.7368 22.8265 15.8944C22.7855 15.9194 22.7441 15.9448 22.7031 15.9698L22.6993 15.973C22.6584 15.9843 22.6174 15.9951 22.5764 16.0064L22.5591 16.004L22.5519 16.0213C22.4361 16.0846 22.32 16.1479 22.2042 16.2116L22.1865 16.208L22.1767 16.2237C21.622 16.4042 21.0673 16.5848 20.5126 16.7654C20.4285 16.788 20.3445 16.8105 20.26 16.8327C20.2469 16.8367 20.2333 16.8407 20.2202 16.8452C20.0365 16.8722 19.8531 16.8992 19.6693 16.9266C19.3871 16.9488 19.1049 16.9709 18.8227 16.9931C18.3719 17.0515 18.1831 16.7271 17.9583 16.455C17.9575 16.4425 17.9524 16.4321 17.9431 16.4232C17.8121 16.2785 17.6816 16.1338 17.5506 15.9895C17.5354 15.9609 17.5202 15.9323 17.505 15.9037C17.3799 15.7569 17.2545 15.6102 17.1294 15.4635C17.115 15.4337 17.1007 15.4039 17.0863 15.374C17.333 15.2842 17.5802 15.1947 17.8269 15.1048C17.878 15.0891 17.9287 15.0734 17.9799 15.0572C18.2764 14.9254 18.5734 14.7936 18.87 14.6618C19.0365 14.5611 19.2033 14.4607 19.3698 14.36C19.4818 14.2814 19.5941 14.2024 19.7061 14.1238C19.7348 14.1085 19.7635 14.0931 19.7923 14.0778C19.8193 14.0528 19.8464 14.0282 19.8738 14.0033C20.0779 13.8295 20.2819 13.6558 20.486 13.4821C20.6233 13.3406 20.761 13.1992 20.8983 13.0577C20.8835 13.042 20.8687 13.0263 20.854 13.0105C20.6077 13.1633 20.3614 13.3161 20.1151 13.4688C20.1053 13.4664 20.0956 13.4676 20.0867 13.4724C20.0715 13.4712 20.0589 13.4757 20.0483 13.4861C19.9224 13.5539 19.7965 13.622 19.6702 13.6897C19.5037 13.7578 19.3368 13.8267 19.1704 13.8944C18.7737 14.0561 18.377 14.2177 17.9803 14.3793C17.9503 14.3833 17.9203 14.387 17.8907 14.391C17.8806 14.3974 17.87 14.4039 17.8599 14.4103C17.7027 14.4652 17.5455 14.5204 17.3884 14.5752C17.3478 14.5877 17.3073 14.6002 17.2667 14.6127C17.224 14.6187 17.1809 14.6252 17.1383 14.6312C16.9093 14.6973 16.6803 14.7638 16.4513 14.8299C16.4264 14.8396 16.4019 14.8497 16.377 14.8593C16.3474 14.863 16.3183 14.8662 16.2887 14.8698C16.2274 14.8795 16.1653 14.8855 16.1053 14.9001C15.8514 14.9609 15.5979 15.0242 15.3444 15.0867C15.1945 15.1048 15.0445 15.1233 14.8941 15.1415C14.8793 15.1395 14.8666 15.1431 14.8552 15.1524C14.8248 15.1524 14.7948 15.152 14.7644 15.152C14.7454 15.1568 14.7264 15.1616 14.7073 15.1669C14.6702 15.1794 14.6326 15.1919 14.5954 15.2044C14.5831 15.2003 14.5709 15.2007 14.5586 15.2056C14.543 15.2056 14.527 15.2056 14.5113 15.2056C14.502 15.2003 14.4944 15.2019 14.4881 15.2104C14.4716 15.2056 14.4551 15.2003 14.4382 15.1955C14.2088 15.2225 13.9798 15.2491 13.7504 15.2761C13.4712 15.289 13.1915 15.3023 12.9122 15.3152C12.6279 15.3019 12.3436 15.289 12.0593 15.2757C11.7796 15.2628 11.4999 15.2503 11.2202 15.2374C11.0495 15.2189 10.8793 15.2003 10.7086 15.1818C10.6951 15.1733 10.6816 15.1653 10.6676 15.1568C10.5683 15.1576 10.4695 15.1584 10.3702 15.1592C10.2954 15.1475 10.2198 15.1399 10.1459 15.1241C9.67058 15.0222 9.19572 14.9186 8.72085 14.8158C8.42596 14.736 8.13107 14.6562 7.83619 14.5764C7.61819 14.5047 7.40019 14.4329 7.18177 14.3612C7.16107 14.3519 7.13994 14.343 7.11924 14.3338C7.07699 14.3209 7.03475 14.308 6.99208 14.2947C6.96377 14.2806 6.93504 14.2665 6.90674 14.2523C6.6541 14.152 6.40188 14.052 6.14924 13.9517C5.8666 13.8243 5.58438 13.6969 5.30175 13.5692C5.24514 13.5406 5.1881 13.5119 5.13149 13.4833C4.86448 13.3491 4.59706 13.2145 4.33005 13.0803C4.32118 13.0569 4.31231 13.0335 4.30301 13.0105C4.29414 13.0158 4.28527 13.021 4.2764 13.0267C4.29541 13.044 4.314 13.0609 4.33301 13.0783C4.45299 13.2141 4.57297 13.3499 4.69254 13.4861C4.8949 13.6643 5.09727 13.842 5.29921 14.0202C5.59748 14.2213 5.88561 14.4377 6.19698 14.6187C6.44877 14.7654 6.72803 14.8694 6.99503 14.9928C7.27429 15.0984 7.55397 15.204 7.83323 15.3096C7.87632 15.3313 7.91941 15.3531 7.96251 15.3748C7.83196 15.5474 7.70099 15.7203 7.57045 15.8928C7.24683 16.2575 6.92364 16.6223 6.60002 16.9871C6.53369 16.9899 6.46736 16.9927 6.40103 16.9955C6.35878 16.9955 6.31654 16.9955 6.27429 16.9955C6.23246 16.9955 6.19064 16.9955 6.14881 16.9955C5.8666 16.9729 5.58438 16.9504 5.30217 16.9278C5.08079 16.8927 4.85899 16.8577 4.63719 16.8226C4.62071 16.817 4.60424 16.8113 4.58734 16.8057C4.54467 16.7972 4.502 16.7888 4.45891 16.7803C3.89448 16.584 3.32963 16.3877 2.7652 16.1914C2.73689 16.1777 2.70858 16.164 2.67986 16.1499C2.59536 16.1104 2.51087 16.0705 2.42637 16.031C2.39595 16.0153 2.36553 15.9996 2.33512 15.9843C2.30977 15.973 2.28484 15.9617 2.25949 15.9504L2.25273 15.946C2.00939 15.7835 1.76519 15.6223 1.52311 15.4583C1.37229 15.3559 1.22485 15.2495 1.07571 15.1447C1.03304 15.1048 0.990372 15.0645 0.947702 15.0246C0.931647 15.0081 0.915593 14.9915 0.899539 14.9754C0.88771 14.9641 0.876303 14.9529 0.864474 14.942C0.763502 14.8456 0.66253 14.7493 0.561558 14.653C0.549728 14.6417 0.537899 14.6308 0.526492 14.6195C0.496496 14.5901 0.466078 14.5607 0.436082 14.5313C0.423408 14.5071 0.411156 14.4825 0.398482 14.4583C0.368063 14.4297 0.337645 14.4011 0.307227 14.3725C0.280611 14.3446 0.253995 14.3172 0.227379 14.2894C0.0528957 14.0827 -0.0320222 13.8513 0.0110705 13.5833C0.0161402 13.5518 0.00431084 13.5184 0.000508554 13.4857C0.0148728 13.2145 0.0288145 12.9432 0.0431787 12.6716C0.056698 12.4048 0.0697947 12.1379 0.083314 11.8715C0.0845814 11.8425 0.0858489 11.8135 0.0871163 11.7845C0.0968333 11.7736 0.100636 11.7615 0.0981007 11.7474L0.104438 11.7393L0.122182 11.7321L0.121759 11.7151C0.142883 11.4971 0.163585 11.279 0.184708 11.0614C0.197383 11.0392 0.218084 11.0183 0.221886 10.9945C0.304269 10.4814 0.385385 9.96789 0.4665 9.45441C0.522267 9.18315 0.578034 8.9119 0.633801 8.64105C0.694638 8.37382 0.755052 8.10619 0.815889 7.83897C0.826028 7.82486 0.83659 7.81076 0.84673 7.79665C0.867008 7.71362 0.887287 7.63019 0.907144 7.54716C0.913481 7.53829 0.919818 7.52983 0.926155 7.52096C0.92869 7.49114 0.931225 7.46171 0.934182 7.43189C0.942632 7.4069 0.951081 7.38231 0.959108 7.35732C0.978965 7.3021 0.998821 7.24689 1.01868 7.19167C1.02586 7.17958 1.02544 7.16789 1.01826 7.1562C1.02544 7.12919 1.03262 7.10219 1.0398 7.07519C1.05459 7.0236 1.0698 6.972 1.08458 6.92001C1.16105 6.68745 1.23752 6.45489 1.31399 6.22273C1.40355 5.9676 1.49354 5.71247 1.58311 5.45733C1.59578 5.41864 1.60846 5.37995 1.62113 5.34125C1.62916 5.33198 1.63296 5.3211 1.63254 5.30901C1.67647 5.19938 1.72041 5.08975 1.76435 4.98012C1.77449 4.94949 1.78463 4.91926 1.79477 4.88863C1.80153 4.87895 1.80829 4.86968 1.81547 4.86001C1.82138 4.83099 1.82688 4.80237 1.83279 4.77335C1.84673 4.74635 1.86025 4.71894 1.87419 4.69194L1.87757 4.68791C1.88729 4.66171 1.89743 4.63591 1.90715 4.60971C1.92278 4.56981 1.93841 4.53031 1.95404 4.49041C2.05501 4.24898 2.15598 4.00755 2.25696 3.76612L2.25865 3.76411C2.28104 3.7238 2.30385 3.6831 2.32624 3.64279C2.33638 3.60893 2.34694 3.57508 2.35708 3.54122C2.36596 3.52228 2.37483 3.50293 2.3837 3.48399L2.38454 3.47955C2.39722 3.45456 2.40989 3.42917 2.42257 3.40418C2.43651 3.37678 2.45045 3.34937 2.46482 3.32196C2.47369 3.30866 2.48256 3.29496 2.49143 3.28166C2.50706 3.24135 2.5227 3.20104 2.53833 3.16074C2.54171 3.14744 2.54509 3.13454 2.54847 3.12124C2.56325 3.09383 2.57846 3.06683 2.59325 3.03942C2.63212 2.97775 2.67648 2.9185 2.70943 2.85402C2.9118 2.45822 3.08121 2.03985 3.52608 1.81817C3.54467 1.80084 3.56283 1.78351 3.58142 1.76618H3.59832L3.61311 1.75852C3.82012 1.63478 4.02671 1.51064 4.23373 1.3869C4.30977 1.35103 4.38582 1.31476 4.46186 1.27889C4.67099 1.1749 4.87969 1.07131 5.08882 0.967326C5.13191 0.945158 5.175 0.922991 5.21767 0.900823C5.24513 0.89518 5.2726 0.889134 5.29963 0.883491C5.52946 0.786356 5.76056 0.68922 5.99165 0.592084ZM7.36893 7.91112C7.33217 7.92845 7.29499 7.94538 7.25824 7.96271C7.17078 8.04453 7.08333 8.12594 6.99588 8.20776C6.88392 8.35407 6.77239 8.49998 6.66043 8.64629C6.56664 8.91351 6.47243 9.18073 6.37864 9.44836C6.26161 9.73574 6.32625 10.0203 6.39258 10.3053C6.50074 10.5559 6.60931 10.8066 6.71747 11.0577C6.80999 11.1654 6.90209 11.2734 6.99461 11.381C7.5244 11.9614 8.19825 12.1186 8.96631 11.9848C9.08545 11.9638 9.19656 11.9025 9.31147 11.8598C9.35457 11.8465 9.39724 11.8332 9.44033 11.8199C9.47159 11.7974 9.50286 11.7752 9.5337 11.7526L9.53496 11.7558C9.87971 11.6115 10.1133 11.356 10.3051 11.0582C10.3309 11.0118 10.3567 10.965 10.3825 10.9183C10.4712 10.6966 10.5599 10.4749 10.6486 10.2537C10.6613 10.1956 10.6862 10.1368 10.6845 10.0791C10.6773 9.87036 10.6613 9.66158 10.649 9.45279C10.649 9.39314 10.6583 9.33188 10.6469 9.27424C10.5405 8.7273 10.2253 8.29523 9.78 7.9611C9.4661 7.72571 9.1015 7.56207 8.68029 7.57457C8.24219 7.5258 7.8345 7.60238 7.46652 7.8422L7.46018 7.84623C7.42807 7.86799 7.39639 7.89016 7.36428 7.91192L7.36893 7.91112ZM16.919 11.9429C16.9325 11.9392 16.9461 11.9352 16.96 11.9316C16.9853 11.9223 17.0107 11.9134 17.036 11.9042C17.4235 11.7708 17.7699 11.5853 17.9769 11.2246C18.29 10.9715 18.3884 10.62 18.464 10.2581C18.4644 9.98764 18.4644 9.7176 18.4649 9.44715C18.4644 9.42095 18.4644 9.39435 18.464 9.36815C18.4725 9.35606 18.4729 9.34357 18.4649 9.33107C18.4492 9.26255 18.4336 9.19403 18.4184 9.12551C18.4112 9.11544 18.4044 9.10536 18.3973 9.09488C18.3766 9.03805 18.3559 8.98122 18.3347 8.92439C18.3276 8.91391 18.3199 8.90343 18.3128 8.89336C18.3056 8.86313 18.2984 8.8329 18.2908 8.80267C18.284 8.79219 18.2773 8.78171 18.2705 8.77123C18.2409 8.72972 18.2114 8.68861 18.1818 8.64709C18.1163 8.54754 18.0508 8.44839 17.9853 8.34883C17.7885 8.13078 17.6077 7.895 17.2971 7.80915C17.2409 7.78133 17.1848 7.75312 17.1286 7.72531C17.085 7.70999 17.0411 7.69427 16.9976 7.67896C16.987 7.67211 16.9765 7.66566 16.9655 7.65881C16.7403 7.631 16.5151 7.60359 16.2895 7.57578C16.1721 7.58021 16.0521 7.57054 15.9376 7.59069C15.3402 7.69669 14.8823 8.01954 14.5519 8.48789C14.3512 8.77204 14.1923 9.09045 14.1957 9.4532C14.0876 9.72365 14.1395 9.99168 14.2109 10.2589C14.2426 10.3814 14.2595 10.51 14.3081 10.6261C14.5303 11.1581 14.8708 11.5918 15.4446 11.8219C15.4834 11.8393 15.5219 11.8566 15.5608 11.8739C15.7838 12.0198 16.031 12.0485 16.2916 12.0118C16.4598 11.9985 16.6279 11.9856 16.7961 11.9723L16.8147 11.9779L16.8333 11.9715C16.862 11.9622 16.8903 11.9525 16.919 11.9429Z" fill="#F3F3F3"/>
</svg>
