<svg width="22" height="22" viewBox="0 0 22 22" fill="none" xmlns="http://www.w3.org/2000/svg">
<path d="M21.7801 13.2225C21.6852 13.5896 21.5902 13.9567 21.4956 14.3236C21.432 14.5082 21.3684 14.6929 21.3048 14.8776C21.1427 15.246 20.9806 15.6148 20.8183 15.9833C20.7522 16.1092 20.6862 16.235 20.6201 16.3606C20.4732 16.6021 20.3262 16.8439 20.179 17.0854C20.1429 17.139 20.1069 17.1925 20.0708 17.2464C19.977 17.3764 19.8834 17.5064 19.7896 17.6364C19.5086 17.9629 19.243 18.3044 18.9428 18.6118C18.6007 18.9624 18.2278 19.2826 17.8681 19.6157C17.7696 19.693 17.6711 19.7703 17.5725 19.8479C17.4878 19.9086 17.4027 19.9696 17.318 20.0303C17.1347 20.1523 16.9514 20.274 16.7681 20.396C16.5857 20.5001 16.4032 20.6039 16.2207 20.7079C16.0697 20.7869 15.9186 20.8658 15.7675 20.9448C15.735 20.9586 15.7028 20.9726 15.6703 20.9865C15.4865 21.0676 15.3024 21.1488 15.1186 21.2302C14.7514 21.3571 14.384 21.4838 14.0169 21.6108C13.8339 21.6577 13.6506 21.7047 13.4676 21.7516C13.284 21.7886 13.1008 21.8256 12.9172 21.8625C12.7336 21.8901 12.5501 21.9175 12.3668 21.9451C12.1832 21.9633 12 21.9818 11.8164 22C11.266 21.9997 10.7159 21.9994 10.1654 21.9992C9.98189 21.9807 9.79833 21.9622 9.61477 21.9437C9.43148 21.9161 9.24819 21.8885 9.06491 21.8609C8.88162 21.8236 8.69806 21.7861 8.51478 21.7488C8.33204 21.7013 8.14931 21.6539 7.96685 21.6061C7.84934 21.5708 7.73155 21.5355 7.61404 21.5001C7.36388 21.4082 7.114 21.316 6.86384 21.2241C6.68 21.1432 6.49617 21.0621 6.31233 20.9812C6.28729 20.9699 6.26224 20.9588 6.2372 20.9475C6.07896 20.8658 5.92044 20.7844 5.7622 20.7027C5.58167 20.5984 5.40113 20.4943 5.2206 20.39C5.03429 20.2658 4.84825 20.1416 4.66194 20.0173C4.58158 19.9599 4.5015 19.9022 4.42114 19.8448C4.31766 19.7634 4.21391 19.682 4.11043 19.6005C3.85202 19.3673 3.57791 19.149 3.33876 18.8975C2.95073 18.4896 2.58553 18.0598 2.21043 17.6391C2.11026 17.5 2.01036 17.3609 1.91018 17.2218C1.88074 17.1765 1.85129 17.1315 1.82184 17.0863C1.66856 16.8348 1.51527 16.5836 1.36198 16.3322C1.30006 16.2143 1.23814 16.0962 1.17622 15.9783C1.01577 15.6115 0.855331 15.2449 0.695163 14.8781C0.631591 14.6943 0.568019 14.5104 0.504722 14.3266C0.410603 13.9573 0.316759 13.588 0.222639 13.2187C0.188514 13.0359 0.154664 12.8529 0.120539 12.6702C0.0993483 12.4861 0.0778824 12.3017 0.0566918 12.1176C0.0410052 11.9338 0.0255939 11.75 0.00990731 11.5664C0.00660487 11.382 0.00330244 11.1979 0 11.0135C0.00302723 10.8297 0.00632967 10.6462 0.0093569 10.4623C0.0247683 10.2779 0.0401796 10.0938 0.055591 9.90945C0.0767816 9.72562 0.0979723 9.54207 0.118888 9.35824C0.153013 9.17386 0.187138 8.98975 0.221263 8.80537C0.234748 8.72725 0.248233 8.64914 0.261718 8.57075C0.341802 8.28121 0.421886 7.99166 0.50197 7.70211C0.565542 7.51773 0.629114 7.33335 0.692686 7.14924C0.732315 7.04298 0.77222 6.93671 0.811849 6.83044C0.931837 6.5696 1.05155 6.30848 1.17154 6.04764C1.38427 5.68054 1.597 5.31343 1.80973 4.9466C1.84469 4.89388 1.87964 4.84088 1.91459 4.78788C2.01173 4.65484 2.1086 4.5218 2.20575 4.38876C2.29079 4.27945 2.37555 4.17015 2.46059 4.06057C2.52306 3.98577 2.58553 3.91097 2.64828 3.83616C2.81505 3.65289 2.9821 3.46933 3.14887 3.28605C3.22841 3.21098 3.31069 3.13866 3.38692 3.06027C3.47857 2.96642 3.55755 2.85877 3.6558 2.77321C3.80248 2.64541 3.96155 2.53141 4.11511 2.41162C4.21005 2.33709 4.305 2.26229 4.39967 2.18777C4.48801 2.12401 4.57635 2.05997 4.66469 1.99621C4.84798 1.87531 5.03154 1.75441 5.21482 1.63352C5.39728 1.52808 5.58002 1.42236 5.76248 1.31692C5.91246 1.23798 6.06245 1.15904 6.21243 1.08009C6.24656 1.06547 6.28096 1.05056 6.31508 1.03593C6.49727 0.956161 6.67973 0.876667 6.86191 0.796897C7.22903 0.668824 7.59643 0.54075 7.96355 0.412676C8.14683 0.365753 8.32984 0.318829 8.51313 0.271905C8.69696 0.234643 8.88107 0.197104 9.06491 0.159841C9.24792 0.132239 9.43093 0.104361 9.61394 0.0767586C10.1338 0.0510887 10.6537 0.0201743 11.1738 0.00168091C11.3876 -0.00577165 11.6026 0.0135498 11.8169 0.0207264C11.853 0.0221065 11.8893 0.0237626 11.9254 0.0251427C12.0726 0.041704 12.2198 0.0582652 12.3671 0.0748265C12.5501 0.102153 12.7328 0.129755 12.9158 0.157081C13.0999 0.194344 13.284 0.231882 13.4679 0.269145C13.6509 0.315793 13.8339 0.362716 14.0169 0.409364C14.3827 0.534677 14.7481 0.659991 15.1139 0.785304C15.2985 0.86535 15.4829 0.945396 15.6676 1.02544C15.7042 1.04283 15.7405 1.0605 15.7771 1.07789C15.9238 1.15324 16.0705 1.22859 16.2172 1.30395C16.4015 1.41104 16.5859 1.51814 16.77 1.62524C16.7739 1.63103 16.7797 1.63407 16.7868 1.63407C16.9646 1.75193 17.1424 1.86979 17.3202 1.98738C17.4104 2.05279 17.5004 2.11821 17.5907 2.18335C17.6837 2.25622 17.777 2.32937 17.87 2.40224C18.0041 2.51402 18.1381 2.62581 18.2721 2.7376C18.5035 2.96063 18.735 3.18365 18.9664 3.40668C19.0952 3.55076 19.2243 3.69484 19.3531 3.83865C19.4081 3.90434 19.4635 3.97003 19.5185 4.03573C19.6107 4.15359 19.7029 4.27173 19.7954 4.38959C19.8853 4.51352 19.9753 4.63745 20.0656 4.76166C20.105 4.82128 20.1443 4.8809 20.1837 4.94052C20.3964 5.30874 20.6091 5.67722 20.8216 6.04544C20.9372 6.28971 21.0528 6.53399 21.1683 6.77827C21.2148 6.9022 21.2614 7.02614 21.3076 7.15007C21.3709 7.33418 21.4342 7.51856 21.4975 7.70266C21.5715 7.97206 21.6458 8.24118 21.7198 8.51058C21.7399 8.60884 21.76 8.70683 21.7801 8.80509C21.812 8.98975 21.844 9.17441 21.8759 9.35907C21.899 9.54235 21.9224 9.72562 21.9458 9.9089C21.9584 10.0933 21.9711 10.2777 21.9838 10.4618C21.9893 10.6456 21.9948 10.8292 22 11.013C21.9945 11.1974 21.989 11.3815 21.9832 11.5659C21.9706 11.7497 21.9579 11.9332 21.9452 12.1171C21.9207 12.3015 21.896 12.4858 21.8715 12.6702C21.842 12.8551 21.8109 13.0387 21.7801 13.2225ZM8.266 16.4821C8.39507 16.5422 8.5035 16.5069 8.60064 16.412C8.82383 16.1939 9.0484 15.9775 9.27049 15.7583C9.66238 15.3714 10.0529 14.983 10.444 14.5952C10.8617 14.9397 11.2803 15.2833 11.6972 15.6286C12.2099 16.0531 12.7171 16.4843 13.2345 16.9027C13.6721 17.2566 14.3183 17.0476 14.4226 16.5215C14.6763 15.2422 14.9234 13.9614 15.1739 12.6815C15.5283 10.8697 15.8831 9.05793 16.2373 7.24585C16.3201 6.82216 16.404 6.39874 16.4816 5.97395C16.5471 5.6154 16.3916 5.45171 16.0333 5.51548C15.8228 5.55301 15.6114 5.60629 15.4127 5.68357C14.5797 6.00707 13.7513 6.34299 12.9208 6.67338C9.87566 7.88429 6.82999 9.09409 3.78569 10.3075C3.67258 10.3525 3.56085 10.416 3.46728 10.4938C3.25978 10.6663 3.24024 10.9371 3.43563 11.1215C3.54819 11.2277 3.6935 11.3238 3.84046 11.3649C4.75826 11.6205 5.68074 11.8593 6.60184 12.1038C7.06198 13.4193 7.52102 14.7351 7.98336 16.0501C8.02107 16.1577 8.07088 16.2626 8.12894 16.3606C8.15867 16.4103 8.21921 16.442 8.266 16.4821Z" fill="#F3F3F3"/>
</svg>
