<svg width="70" height="70" viewBox="0 0 70 70" fill="none" xmlns="http://www.w3.org/2000/svg">
<path d="M68.7677 41.5593C68.4693 42.7132 68.1709 43.867 67.8733 45.02C67.6735 45.6004 67.4737 46.1808 67.2739 46.7612C66.7644 47.9194 66.2549 49.0784 65.7446 50.2366C65.537 50.6322 65.3294 51.0278 65.1218 51.4226C64.6599 52.1817 64.198 52.9416 63.7352 53.7007C63.6219 53.8691 63.5086 54.0374 63.3953 54.2065C63.1003 54.6152 62.8062 55.0238 62.5113 55.4324C61.6281 56.4587 60.7934 57.5319 59.8497 58.4983C58.7746 59.6001 57.6025 60.6065 56.472 61.6536C56.1623 61.8965 55.8526 62.1394 55.543 62.3832C55.2766 62.5741 55.0093 62.7658 54.7429 62.9567C54.1668 63.3401 53.5907 63.7227 53.0146 64.1062C52.4412 64.4333 51.8677 64.7594 51.2942 65.0865C50.8193 65.3346 50.3444 65.5828 49.8696 65.8309C49.7675 65.8743 49.6663 65.9185 49.5642 65.9619C48.9864 66.2169 48.4077 66.472 47.8299 66.7279C46.6761 67.127 45.5213 67.5252 44.3674 67.9243C43.7922 68.0718 43.2161 68.2193 42.6409 68.3667C42.064 68.483 41.4879 68.5992 40.9109 68.7155C40.334 68.8022 39.7571 68.8881 39.181 68.9749C38.604 69.0322 38.028 69.0903 37.451 69.1475C35.7211 69.1467 33.9919 69.1458 32.262 69.1449C31.685 69.0868 31.1081 69.0287 30.5312 68.9706C29.9551 68.8838 29.379 68.797 28.8029 68.7103C28.2268 68.5932 27.6499 68.4752 27.0738 68.3581C26.4995 68.2088 25.9251 68.0596 25.3516 67.9095C24.9823 67.7985 24.6121 67.6874 24.2427 67.5764C23.4565 67.2875 22.6711 66.9977 21.8848 66.7088C21.307 66.4547 20.7292 66.1996 20.1514 65.9454C20.0727 65.9098 19.9939 65.8751 19.9152 65.8396C19.4179 65.5828 18.9196 65.3268 18.4223 65.07C17.8548 64.7421 17.2874 64.415 16.72 64.0871C16.1344 63.6967 15.5497 63.3063 14.9641 62.9159C14.7115 62.7355 14.4598 62.5541 14.2072 62.3737C13.882 62.1178 13.5559 61.8618 13.2307 61.6059C12.4184 60.8728 11.5569 60.1866 10.8052 59.3962C9.58562 58.114 8.43779 56.7632 7.25882 55.4411C6.94396 55.0038 6.62997 54.5666 6.31512 54.1293C6.22257 53.987 6.13001 53.8456 6.03746 53.7034C5.55567 52.913 5.07387 52.1235 4.59208 51.3332C4.39745 50.9628 4.20283 50.5914 4.00821 50.221C3.50393 49.068 2.99964 47.9159 2.49622 46.7629C2.29641 46.1851 2.0966 45.6074 1.89766 45.0296C1.60183 43.8688 1.30687 42.708 1.01105 41.5472C0.903792 40.9729 0.797399 40.3977 0.690141 39.8234C0.623538 39.2447 0.556069 38.6652 0.489466 38.0865C0.440162 37.5087 0.391723 36.9309 0.342419 36.354C0.332039 35.7745 0.321659 35.1958 0.311279 34.6163C0.320794 34.0385 0.331174 33.4616 0.340689 32.8838C0.389128 32.3043 0.437567 31.7256 0.486006 31.1461C0.552609 30.5683 0.619213 29.9914 0.684952 29.4136C0.792209 28.8341 0.899467 28.2554 1.00673 27.6759C1.04911 27.4304 1.09149 27.1849 1.13388 26.9385C1.38559 26.0284 1.6373 25.1183 1.88901 24.2083C2.08882 23.6288 2.28863 23.0492 2.48844 22.4706C2.613 22.1366 2.73842 21.8026 2.86298 21.4685C3.24011 20.6487 3.61638 19.828 3.99351 19.0082C4.66214 17.8543 5.33077 16.7005 5.9994 15.5475C6.10925 15.3818 6.21911 15.2152 6.32896 15.0487C6.6343 14.6305 6.93877 14.2123 7.24411 13.7942C7.51139 13.4506 7.7778 13.1071 8.04508 12.7627C8.24143 12.5275 8.43779 12.2924 8.635 12.0573C9.15918 11.4813 9.68423 10.9044 10.2084 10.3283C10.4584 10.0923 10.717 9.86502 10.9566 9.61864C11.2447 9.32367 11.4929 8.98532 11.8017 8.71638C12.2627 8.31471 12.7627 7.95641 13.2454 7.57989C13.5438 7.34565 13.8422 7.11054 14.1397 6.8763C14.4174 6.6759 14.6951 6.47463 14.9727 6.27422C15.5488 5.89423 16.1257 5.51425 16.7018 5.13426C17.2753 4.80285 17.8497 4.47058 18.4231 4.13917C18.8946 3.89105 19.366 3.64293 19.8374 3.39481C19.9446 3.34883 20.0528 3.30199 20.16 3.256C20.7326 3.00528 21.3061 2.75543 21.8787 2.5047C23.0326 2.10216 24.1874 1.69961 25.3413 1.29707C25.9173 1.14959 26.4926 1.0021 27.0686 0.854618C27.6464 0.737498 28.2251 0.619511 28.8029 0.502391C29.3781 0.415636 29.9533 0.328013 30.5286 0.241258C32.1625 0.160575 33.7965 0.0634093 35.4313 0.00528322C36.1034 -0.0181407 36.7789 0.042588 37.4527 0.0651444C37.5661 0.0694822 37.6802 0.0746875 37.7935 0.0790252C38.2563 0.131078 38.7191 0.183132 39.1818 0.235185C39.7571 0.321073 40.3314 0.407828 40.9066 0.493716C41.4853 0.610835 42.064 0.728822 42.6418 0.845942C43.217 0.992559 43.7922 1.14004 44.3674 1.28666C45.517 1.68053 46.6657 2.0744 47.8152 2.46827C48.3956 2.71986 48.9752 2.97145 49.5556 3.22304C49.6706 3.27769 49.7848 3.33322 49.8998 3.38787C50.3609 3.62471 50.8219 3.86156 51.2829 4.0984C51.8625 4.43501 52.442 4.77162 53.0207 5.10823C53.0328 5.12645 53.051 5.13599 53.0735 5.13599C53.6322 5.50644 54.191 5.87688 54.7498 6.24646C55.0335 6.45207 55.3164 6.65768 55.6001 6.86242C55.8924 7.09146 56.1857 7.32136 56.478 7.55039C56.8993 7.90175 57.3205 8.25311 57.7418 8.60447C58.4692 9.30545 59.1967 10.0064 59.9241 10.7074C60.3289 11.1603 60.7346 11.6131 61.1394 12.0651C61.3124 12.2716 61.4863 12.4781 61.6593 12.6846C61.949 13.055 62.2388 13.4263 62.5294 13.7968C62.8123 14.1863 63.0951 14.5758 63.3789 14.9662C63.5025 15.1536 63.6262 15.341 63.7499 15.5284C64.4186 16.6857 65.0872 17.8439 65.755 19.0012C66.1182 19.769 66.4815 20.5368 66.8448 21.3046C66.991 21.6941 67.1372 22.0836 67.2825 22.4732C67.4815 23.0518 67.6804 23.6314 67.8794 24.21C68.112 25.0567 68.3456 25.9026 68.5783 26.7493C68.6414 27.0582 68.7046 27.3662 68.7677 27.675C68.868 28.2554 68.9684 28.8358 69.0687 29.4162C69.1414 29.9923 69.2149 30.5683 69.2884 31.1444C69.3282 31.7239 69.368 32.3034 69.4078 32.8821C69.4251 33.4599 69.4424 34.0368 69.4588 34.6146C69.4415 35.1941 69.4242 35.7728 69.4061 36.3523C69.3663 36.9301 69.3265 37.507 69.2867 38.0848C69.2097 38.6643 69.1319 39.2438 69.0549 39.8234C68.9623 40.4046 68.8646 40.9816 68.7677 41.5593ZM26.2919 51.8043C26.6976 51.9934 27.0384 51.8824 27.3437 51.5839C28.0452 50.8986 28.751 50.2184 29.4491 49.5296C30.6808 48.3132 31.9082 47.0926 33.1373 45.8737C34.4504 46.9564 35.766 48.0365 37.0765 49.1218C38.6879 50.4561 40.2821 51.8112 41.9083 53.1264C43.2836 54.2386 45.3146 53.5819 45.6424 51.9283C46.4399 47.9072 47.2167 43.8818 48.0038 39.8589C49.1179 34.1643 50.2329 28.4697 51.3461 22.7742C51.6064 21.4425 51.8703 20.1117 52.1142 18.7765C52.3201 17.6496 51.8313 17.1351 50.7051 17.3355C50.0434 17.4535 49.3791 17.6209 48.7546 17.8639C46.1363 18.8806 43.5327 19.9364 40.9222 20.9749C31.3512 24.7809 21.7784 28.5834 12.21 32.3971C11.8545 32.5385 11.5033 32.7381 11.2092 32.9827C10.557 33.5249 10.4956 34.376 11.1097 34.9555C11.4635 35.2895 11.9202 35.5914 12.3821 35.7207C15.2668 36.5241 18.1662 37.2745 21.0613 38.0431C22.5076 42.1779 23.9504 46.3135 25.4035 50.4466C25.522 50.7849 25.6786 51.1146 25.8611 51.4226C25.9545 51.5787 26.1448 51.6785 26.2919 51.8043Z" fill="black"/>
</svg>
