<svg width="24" height="20" viewBox="0 0 24 20" fill="none" xmlns="http://www.w3.org/2000/svg">
<path d="M7.24956 15.6532C5.91202 15.5919 4.77536 15.0779 3.84299 14.1044C3.31041 13.5482 2.93131 12.8911 2.69385 12.1306C2.88853 12.1555 3.06538 12.1849 3.24333 12.1989C3.42046 12.2129 3.59897 12.2204 3.77628 12.2144C3.95608 12.2084 4.1357 12.1859 4.31458 12.1639C4.49096 12.1421 4.6655 12.1075 4.83875 12.0474C3.7068 11.7689 2.76629 11.1791 2.04098 10.2451C1.31437 9.30956 0.967793 8.23937 0.982946 7.03998C1.66123 7.40438 2.37277 7.61571 3.13689 7.64849C1.86201 6.67946 1.12718 5.40288 1.02148 3.76871C0.955874 2.75488 1.18437 1.81058 1.67407 0.919521C1.69846 0.941023 1.71574 0.952863 1.72896 0.968303C1.94609 1.22131 2.15675 1.48047 2.38127 1.72638C2.5742 1.9377 2.78172 2.1352 2.98472 2.33668C3.30312 2.65268 3.64129 2.94585 3.99498 3.21893C4.27485 3.43509 4.56202 3.64178 4.85076 3.84534C5.21849 4.1046 5.60582 4.33099 5.9998 4.54582C6.71329 4.93475 7.45403 5.25719 8.2224 5.51295C8.90161 5.73905 9.59301 5.91486 10.2994 6.02436C10.5866 6.06888 10.8755 6.10355 11.1642 6.13803C11.3156 6.15612 11.4684 6.16171 11.6201 6.17734C11.6802 6.18359 11.7393 6.20746 11.8056 6.17118C11.8015 6.13793 11.7977 6.10411 11.7931 6.07049C11.762 5.84363 11.7252 5.61752 11.7018 5.3898C11.6867 5.24346 11.6811 5.09446 11.6894 4.94773C11.7081 4.61913 11.733 4.29092 11.8037 3.9681C11.9275 3.40298 12.1346 2.87291 12.4336 2.38139C12.6065 2.09712 12.8054 1.8336 13.0295 1.58874C13.3946 1.18977 13.8112 0.862592 14.28 0.602102C14.7523 0.339718 15.2516 0.16088 15.7815 0.0716508C15.9475 0.0437074 16.1132 0.0156692 16.2825 0.0145326C16.4819 0.0132064 16.6819 -0.00782218 16.8805 0.00221851C17.1432 0.0154798 17.4046 0.0505275 17.6627 0.10774C18.077 0.199527 18.4733 0.342465 18.8514 0.537406C19.2464 0.741062 19.6064 0.99852 19.9354 1.30088C20.0222 1.38063 20.1027 1.46759 20.1837 1.55369C20.2085 1.58012 20.2318 1.58637 20.2654 1.57851C20.3641 1.5554 20.464 1.53674 20.5626 1.51287C21.1991 1.35875 21.8161 1.1442 22.4088 0.861739C22.6957 0.725053 22.9715 0.564023 23.2523 0.413981C23.2758 0.401383 23.2994 0.38888 23.3259 0.374671C23.3323 0.521493 23.1207 1.02438 22.8643 1.46285C22.6659 1.80215 22.4274 2.11105 22.1559 2.3919C21.8829 2.67418 21.5802 2.91961 21.2544 3.13823C21.729 3.08803 22.1924 2.98544 22.6507 2.85747C23.107 2.73006 23.5496 2.56117 23.9843 2.36955C23.9895 2.37589 23.9947 2.38224 23.9999 2.38859C23.9607 2.44978 23.9227 2.51192 23.8818 2.57188C23.6451 2.91828 23.3884 3.24858 23.1111 3.56136C22.9067 3.79201 22.6935 4.01414 22.4682 4.22442C22.1951 4.47942 21.9133 4.72267 21.6143 4.94479C21.5646 4.98174 21.5533 5.02645 21.5542 5.08281C21.5566 5.23067 21.5573 5.37853 21.5594 5.5263C21.5618 5.69046 21.5684 5.85461 21.5667 6.01867C21.5655 6.12486 21.5518 6.23095 21.5451 6.33713C21.5413 6.39653 21.5424 6.4563 21.5373 6.51559C21.5138 6.79323 21.4973 7.07181 21.4625 7.34793C21.4233 7.65928 21.373 7.9695 21.3173 8.2783C21.1873 8.99886 20.9973 9.70351 20.7617 10.3951C20.6086 10.8446 20.4338 11.2853 20.2401 11.7185C19.9718 12.3185 19.6658 12.8976 19.3237 13.4563C18.9701 14.0338 18.5785 14.5836 18.1471 15.1027C17.9897 15.292 17.8258 15.4758 17.6602 15.6575C17.507 15.8259 17.3542 15.9957 17.1892 16.1514C16.9114 16.4137 16.6302 16.6731 16.3389 16.9192C16.0852 17.1334 15.82 17.3342 15.5516 17.5291C15.1799 17.7988 14.7935 18.0455 14.3941 18.2706C13.8923 18.5534 13.3758 18.8039 12.8424 19.0168C12.4268 19.1827 12.0049 19.3301 11.5745 19.452C11.1893 19.5611 10.8019 19.6602 10.4088 19.7324C10.1074 19.7877 9.80451 19.8362 9.50107 19.8781C9.2589 19.9116 9.01498 19.9328 8.77142 19.955C8.64696 19.9663 8.52158 19.967 8.39666 19.9741C8.29604 19.9798 8.1956 19.9879 8.09508 19.9949C8.07669 19.9962 8.05839 19.9983 8.04001 19.9984C7.72909 19.9989 7.41809 20.001 7.10717 19.9983C7.00674 19.9975 6.9064 19.983 6.80587 19.9763C6.74794 19.9724 6.68972 19.9725 6.6317 19.9691C6.25324 19.9474 5.87747 19.902 5.50224 19.8472C5.03047 19.7783 4.5647 19.6804 4.1029 19.5616C3.57439 19.4256 3.05706 19.2534 2.54787 19.0548C2.06426 18.8662 1.59175 18.6516 1.13531 18.4028C0.779951 18.2092 0.435404 17.9948 0.0865145 17.7887C0.0615674 17.774 0.040501 17.7524 -6.10352e-05 17.7197C1.79807 17.9264 3.5074 17.6714 5.14689 16.9452C5.90315 16.6103 6.60324 16.1766 7.24956 15.6532Z" fill="#F3F3F3"/>
</svg>
