<svg width="76" height="62" viewBox="0 0 76 62" fill="none" xmlns="http://www.w3.org/2000/svg">
<path d="M23.2917 48.2666C19.1561 48.0806 15.6416 46.5203 12.7587 43.5648C11.112 41.8765 9.93986 39.8815 9.20564 37.573C9.80758 37.6486 10.3544 37.7377 10.9046 37.7803C11.4523 37.8229 12.0042 37.8456 12.5525 37.8275C13.1084 37.8091 13.6638 37.7409 14.2169 37.6739C14.7622 37.6078 15.3019 37.5028 15.8376 37.3205C12.3376 36.4748 9.42962 34.6845 7.18698 31.8492C4.94034 29.009 3.86873 25.7602 3.91558 22.1191C6.01281 23.2253 8.21288 23.8669 10.5755 23.9664C6.6336 21.0247 4.36154 17.1493 4.03471 12.1884C3.83187 9.11064 4.53838 6.24399 6.05252 3.53895C6.12794 3.60422 6.18136 3.64017 6.22221 3.68704C6.89358 4.4551 7.54494 5.24185 8.23916 5.98835C8.83568 6.62989 9.47733 7.22944 10.105 7.84108C11.0895 8.80036 12.1351 9.69035 13.2287 10.5194C14.094 11.1756 14.9819 11.803 15.8747 12.421C17.0117 13.208 18.2093 13.8953 19.4275 14.5475C21.6336 15.7282 23.9239 16.707 26.2997 17.4834C28.3998 18.1698 30.5376 18.7035 32.7217 19.0359C33.6099 19.1711 34.5029 19.2763 35.3957 19.381C35.8639 19.4359 36.3362 19.4529 36.8053 19.5003C36.9912 19.5193 37.1738 19.5918 37.3789 19.4816C37.3661 19.3807 37.3543 19.2781 37.3401 19.176C37.2441 18.4873 37.1301 17.8009 37.0578 17.1096C37.0112 16.6653 36.9938 16.213 37.0195 15.7676C37.0772 14.77 37.1544 13.7737 37.3729 12.7937C37.7557 11.0781 38.396 9.46893 39.3204 7.9768C39.8553 7.11385 40.4701 6.31386 41.1631 5.57053C42.2919 4.35934 43.58 3.36612 45.0296 2.57534C46.49 1.77881 48.0336 1.23591 49.672 0.965029C50.1854 0.8802 50.6976 0.795083 51.2213 0.791632C51.8378 0.787606 52.456 0.723769 53.0703 0.75425C53.8825 0.794508 54.6907 0.900904 55.4889 1.07459C56.7696 1.35323 57.9952 1.78715 59.1642 2.37894C60.3856 2.99719 61.4986 3.77877 62.5159 4.69665C62.7842 4.93877 63.0333 5.20275 63.2836 5.46414C63.3604 5.54436 63.4324 5.56334 63.5361 5.53948C63.8415 5.46931 64.1503 5.41266 64.4552 5.3402C66.4233 4.87234 68.3308 4.22103 70.1635 3.36354C71.0505 2.94859 71.9033 2.45975 72.7715 2.00426C72.8444 1.96601 72.9172 1.92805 72.9992 1.88492C73.0189 2.33063 72.3647 3.85727 71.5719 5.18837C70.9585 6.2184 70.2212 7.15612 69.3815 8.00872C68.5376 8.86564 67.6014 9.6107 66.5941 10.2744C68.0617 10.122 69.4944 9.81055 70.9114 9.42206C72.3224 9.0353 73.6908 8.52258 75.035 7.94086C75.051 7.96012 75.067 7.97939 75.0833 7.99866C74.9619 8.18442 74.8444 8.37306 74.7179 8.55508C73.9862 9.60667 73.1923 10.6094 72.335 11.5589C71.703 12.2591 71.044 12.9334 70.3472 13.5718C69.5027 14.3459 68.6313 15.0843 67.7068 15.7587C67.5531 15.8708 67.5183 16.0065 67.5211 16.1776C67.5286 16.6265 67.5306 17.0754 67.5371 17.524C67.5446 18.0223 67.5651 18.5206 67.5597 19.0187C67.556 19.341 67.5137 19.6631 67.4929 19.9854C67.4812 20.1657 67.4846 20.3472 67.4689 20.5272C67.3963 21.37 67.3452 22.2157 67.2375 23.054C67.1163 23.9992 66.9609 24.9409 66.7886 25.8783C66.3867 28.0658 65.7993 30.2049 65.0708 32.3044C64.5974 33.6691 64.0569 35.0068 63.4581 36.3218C62.6285 38.1435 61.6823 39.9013 60.6247 41.5973C59.5313 43.3505 58.3203 45.0195 56.9865 46.5956C56.4999 47.1702 55.9931 47.728 55.4812 48.2798C55.0072 48.7908 54.535 49.3064 54.0247 49.7792C53.1657 50.5754 52.2963 51.3627 51.3956 52.1098C50.6111 52.7603 49.7911 53.3699 48.9612 53.9614C47.8122 54.7801 46.6175 55.5291 45.3824 56.2124C43.8309 57.071 42.2339 57.8313 40.5846 58.4777C39.2996 58.9813 37.9951 59.4287 36.6641 59.7988C35.4731 60.13 34.2755 60.4308 33.0599 60.6499C32.128 60.8179 31.1915 60.9651 30.2533 61.0925C29.5045 61.194 28.7503 61.2584 27.9973 61.3257C27.6124 61.3602 27.2248 61.3622 26.8385 61.3838C26.5274 61.401 26.2169 61.4258 25.906 61.447C25.8492 61.4508 25.7926 61.4574 25.7358 61.4577C24.7744 61.4591 23.8128 61.4655 22.8515 61.4574C22.5409 61.4548 22.2307 61.4108 21.9198 61.3904C21.7407 61.3786 21.5607 61.3789 21.3813 61.3685C20.2111 61.3027 19.0493 61.165 17.8891 60.9985C16.4304 60.7894 14.9902 60.4921 13.5624 60.1315C11.9282 59.7188 10.3287 59.1961 8.75426 58.5931C7.25897 58.0205 5.79797 57.3689 4.38668 56.6138C3.28793 56.026 2.2226 55.375 1.14385 54.7496C1.06671 54.7047 1.00158 54.6391 0.87616 54.5399C6.43591 55.1674 11.7211 54.3933 16.7903 52.1889C19.1287 51.1721 21.2933 49.8557 23.2917 48.2666Z" fill="black"/>
</svg>
